<svg width="306" height="113" viewBox="0 0 306 113" fill="none" xmlns="http://www.w3.org/2000/svg">
<path d="M64.78 69.5L73.96 66.26C74.32 69.068 75.544 71.408 77.632 73.28C79.72 75.08 82.528 75.98 86.056 75.98C88.792 75.98 90.952 75.332 92.536 74.036C94.12 72.668 94.912 71.012 94.912 69.068C94.912 65.612 92.68 63.38 88.216 62.372L79.36 60.428C75.328 59.564 72.16 57.836 69.856 55.244C67.552 52.652 66.4 49.52 66.4 45.848C66.4 41.384 68.2 37.532 71.8 34.292C75.472 31.052 79.828 29.432 84.868 29.432C88.18 29.432 91.132 29.936 93.724 30.944C96.316 31.88 98.332 33.14 99.772 34.724C101.212 36.308 102.292 37.784 103.012 39.152C103.732 40.52 104.272 41.924 104.632 43.364L95.668 46.712C95.524 45.848 95.272 45.02 94.912 44.228C94.552 43.364 93.976 42.428 93.184 41.42C92.464 40.412 91.384 39.62 89.944 39.044C88.504 38.396 86.812 38.072 84.868 38.072C82.348 38.072 80.26 38.756 78.604 40.124C77.02 41.492 76.228 43.112 76.228 44.984C76.228 48.296 78.208 50.384 82.168 51.248L90.592 53.084C95.2 54.092 98.728 55.964 101.176 58.7C103.696 61.364 104.956 64.64 104.956 68.528C104.956 72.632 103.264 76.34 99.88 79.652C96.568 82.964 91.924 84.62 85.948 84.62C79.54 84.62 74.536 83.036 70.936 79.868C67.336 76.628 65.284 73.172 64.78 69.5ZM124.533 51.68H152.937C152.793 47.792 151.497 44.624 149.049 42.176C146.601 39.656 143.145 38.396 138.681 38.396C134.649 38.396 131.337 39.728 128.745 42.392C126.153 44.984 124.749 48.08 124.533 51.68ZM154.449 65.18L163.197 68.204C161.685 73.028 158.877 76.988 154.773 80.084C150.669 83.108 145.701 84.62 139.869 84.62C132.597 84.62 126.405 82.136 121.293 77.168C116.253 72.128 113.733 65.36 113.733 56.864C113.733 48.944 116.181 42.392 121.077 37.208C125.973 32.024 131.805 29.432 138.573 29.432C146.421 29.432 152.541 31.916 156.933 36.884C161.325 41.78 163.521 48.368 163.521 56.648C163.521 57.944 163.449 59.024 163.305 59.888H124.209C124.281 64.496 125.793 68.276 128.745 71.228C131.769 74.18 135.477 75.656 139.869 75.656C147.285 75.656 152.145 72.164 154.449 65.18ZM188.385 104.708H177.261L190.221 77.276L167.865 31.052H179.529L195.729 66.908L211.281 31.052H222.189L188.385 104.708ZM242.108 83H231.956V4.808H242.108V83ZM254.518 69.5L263.698 66.26C264.058 69.068 265.282 71.408 267.37 73.28C269.458 75.08 272.266 75.98 275.794 75.98C278.53 75.98 280.69 75.332 282.274 74.036C283.858 72.668 284.65 71.012 284.65 69.068C284.65 65.612 282.418 63.38 277.954 62.372L269.098 60.428C265.066 59.564 261.898 57.836 259.594 55.244C257.29 52.652 256.138 49.52 256.138 45.848C256.138 41.384 257.938 37.532 261.538 34.292C265.21 31.052 269.566 29.432 274.606 29.432C277.918 29.432 280.87 29.936 283.462 30.944C286.054 31.88 288.07 33.14 289.51 34.724C290.95 36.308 292.03 37.784 292.75 39.152C293.47 40.52 294.01 41.924 294.37 43.364L285.406 46.712C285.262 45.848 285.01 45.02 284.65 44.228C284.29 43.364 283.714 42.428 282.922 41.42C282.202 40.412 281.122 39.62 279.682 39.044C278.242 38.396 276.55 38.072 274.606 38.072C272.086 38.072 269.998 38.756 268.342 40.124C266.758 41.492 265.966 43.112 265.966 44.984C265.966 48.296 267.946 50.384 271.906 51.248L280.33 53.084C284.938 54.092 288.466 55.964 290.914 58.7C293.434 61.364 294.694 64.64 294.694 68.528C294.694 72.632 293.002 76.34 289.618 79.652C286.306 82.964 281.662 84.62 275.686 84.62C269.278 84.62 264.274 83.036 260.674 79.868C257.074 76.628 255.022 73.172 254.518 69.5Z" fill="#1E1E1E"/>
<path d="M35.954 70.2353C15.1515 56.6499 -6.74561 29.6899 27.7944 8.24159C31.4643 5.96275 35.1605 10.9338 32.8996 14.6147C16.4999 41.3141 39.4847 54.7116 40.6246 68.0242C40.8372 70.507 38.0404 71.5979 35.954 70.2353Z" fill="#A8D5FF"/>
<path d="M40.34 71.5137C17.5249 57.4982 -8.89543 26.444 38.4327 3.74463C40.3802 2.81058 42.1508 5.30887 40.7774 6.97588C13.0627 40.6153 44.8875 55.0457 42.9509 70.4075C42.7951 71.6437 41.4017 72.1659 40.34 71.5137Z" fill="#006BCD"/>
<path d="M9.51495 38.7863C35.1729 46.8825 69.2749 72.324 20.5362 107.964C19.6438 108.617 18.5816 107.58 19.1544 106.624C45.7612 62.2074 7.29744 56.6028 8.29014 39.6567C8.32686 39.0299 8.94125 38.6052 9.51495 38.7863Z" fill="#0057A8"/>
<path d="M6.62432 42.7764C32.2076 46.4583 66.4171 64.6265 28.9123 105.428C27.3891 107.085 25.0116 105.37 25.795 103.234C41.4924 60.4308 7.36707 60.0599 4.60309 44.8662C4.3814 43.6476 5.47073 42.6103 6.62432 42.7764Z" fill="#A8D5FF"/>
</svg>
